<svg width="24" height="24" viewBox="0 0 24 24" fill="none" xmlns="http://www.w3.org/2000/svg">
<g clip-path="url(#clip0_45_53)">
<path d="M5.32031 7.6465C5.11842 7.8349 4.80203 7.82396 4.61363 7.62206C4.42523 7.42017 4.43617 7.10378 4.63806 6.91538L10.2107 1.71518C11.2327 0.761605 12.809 0.761605 13.831 1.71519L19.4036 6.91538C19.6055 7.10378 19.6165 7.42017 19.4281 7.62206C19.2397 7.82396 18.9233 7.8349 18.7214 7.6465L13.1487 2.44632C12.511 1.85123 11.5307 1.85123 10.893 2.44631L5.32031 7.6465Z" fill="black"/>
<path fill-rule="evenodd" clip-rule="evenodd" d="M21.3981 20.4706L20.8825 22.5592C20.7021 23.2903 20.05 23.8047 19.2999 23.8047H4.74211C3.99251 23.8047 3.34068 23.2909 3.15858 22.5594L2.64214 20.4706H21.3981ZM22.2111 17.1856L21.6461 19.4706H2.39414L1.82914 17.1856H22.2111ZM23.0231 13.8996L22.4581 16.1856H1.58214L1.01714 13.8996H23.0231ZM23.396 9.5666C23.7517 9.5666 24.013 9.9004 23.9276 10.2457L23.2711 12.8996H0.770145L0.114414 10.2456C0.0290551 9.90036 0.290356 9.5666 0.646028 9.5666H23.396Z" fill="black"/>
</g>
<defs>
<clipPath id="clip0_45_53">
<rect width="24" height="24" fill="white"/>
</clipPath>
</defs>
</svg>
